<svg xmlns="http://www.w3.org/2000/svg" width="833" height="173" viewBox="0 0 833 173" version="1.1"><path d="M 93.200 34.200 C 92.297 35.103, 92 48.356, 92 87.700 L 92 140 81.500 140 L 71 140 71 144.300 C 71 146.665, 71.540 149.140, 72.200 149.800 C 73.942 151.542, 293.058 151.542, 294.800 149.800 C 295.460 149.140, 296 146.665, 296 144.300 L 296 140 285.750 140 L 275.500 140 275.768 88.852 C 276.002 44.161, 275.842 37.407, 274.495 35.352 L 272.954 33 183.677 33 C 115.573 33, 94.115 33.285, 93.200 34.200 M 99 87 L 99 133 183.500 133 L 268 133 268 87 L 268 41 183.500 41 L 99 41 99 87 M 348.014 75.724 C 341.976 78.878, 338 84.808, 338 90.657 C 338 93.811, 338.198 94, 341.500 94 C 344.585 94, 345 93.698, 345 91.450 C 345 88.359, 347.076 84.146, 349.825 81.658 C 351.301 80.322, 354.074 79.669, 359.980 79.264 C 368.023 78.713, 368.102 78.681, 367.802 76.104 C 367.512 73.605, 367.215 73.488, 360.441 73.210 C 354.322 72.959, 352.666 73.294, 348.014 75.724 M 391 73.791 C 391 74.652, 399.709 98.859, 402.497 105.750 C 404.060 109.612, 404.536 110, 407.716 110 C 410.083 110, 411.071 109.596, 410.773 108.750 C 410.531 108.063, 407.494 99.737, 404.024 90.250 L 397.716 73 394.358 73 C 392.511 73, 391 73.356, 391 73.791 M 418 91.500 L 418 110 421.500 110 C 424.960 110, 425 109.951, 425 105.679 C 425 101.527, 425.506 100.811, 437.898 87.429 L 450.797 73.500 446.648 73.174 C 442.573 72.853, 442.347 73.012, 433.786 82.174 L 425.072 91.500 425.036 82.250 L 425 73 421.500 73 L 418 73 418 91.500 M 460 75.974 L 460 79 475.566 79 L 491.133 79 490.816 76.250 L 490.500 73.500 475.250 73.224 L 460 72.948 460 75.974 M 501 92 L 501 111 504 111 L 507 111 507 92 L 507 73 504 73 L 501 73 501 92 M 525 81 L 525 89 519.500 89 C 514.056 89, 514 89.030, 514 92 C 514 94.967, 514.060 95, 519.458 95 L 524.916 95 525.208 102.750 L 525.500 110.500 528.500 110.500 L 531.500 110.500 531.772 91.750 L 532.044 73 528.522 73 L 525 73 525 81 M 554 92 L 554 111.127 557.250 110.813 L 560.500 110.500 560.500 92 L 560.500 73.500 557.250 73.187 L 554 72.873 554 92 M 580.167 73.870 C 580.350 74.348, 583.398 82.673, 586.941 92.370 L 593.381 110 596.691 110 C 598.511 110, 600 109.557, 600 109.015 C 600 107.936, 591.062 82.764, 588.544 76.750 C 587.145 73.410, 586.583 73, 583.403 73 C 581.440 73, 579.983 73.391, 580.167 73.870 M 608.194 74.750 C 607.712 75.713, 605.854 80.191, 604.066 84.702 C 601.153 92.050, 600.935 93.273, 601.980 96.439 C 602.621 98.382, 603.492 100.186, 603.916 100.448 C 604.628 100.888, 615 76.103, 615 73.959 C 615 72.219, 609.119 72.902, 608.194 74.750 M 625 76 L 625 79 639 79 L 653 79 653 76 L 653 73 639 73 L 625 73 625 76 M 667 91.500 L 667 110 680.066 110 L 693.133 110 692.816 107.250 L 692.500 104.500 682.750 104.214 L 673 103.928 673 88.464 L 673 73 670 73 L 667 73 667 91.500 M 736.011 74.187 C 736.017 74.909, 738.831 83.150, 742.264 92.500 L 748.506 109.500 752.232 109.809 L 755.957 110.118 751.585 97.809 C 743.339 74.596, 742.808 73.541, 739.195 73.187 C 737.061 72.977, 736.004 73.309, 736.011 74.187 M 760.140 82.897 C 756.452 91.784, 756.147 93.137, 757.153 96.147 C 757.769 97.991, 758.592 99.858, 758.982 100.296 C 759.550 100.933, 763.582 91.980, 770.711 74.250 C 771.056 73.393, 770.119 73, 767.731 73 C 764.265 73, 764.228 73.048, 760.140 82.897 M 386.201 84 C 385.657 85.375, 383.315 91.225, 380.996 97 C 378.678 102.775, 376.557 108.063, 376.283 108.750 C 375.943 109.606, 376.885 110, 379.275 110 C 382.754 110, 382.775 109.972, 386.734 100.179 L 390.704 90.358 388.947 85.929 C 387.229 81.597, 387.169 81.555, 386.201 84 M 472.713 85.621 C 472.321 86.013, 472 91.658, 472 98.167 L 472 110 475.531 110 L 479.062 110 478.781 97.750 L 478.500 85.500 475.963 85.204 C 474.567 85.041, 473.104 85.229, 472.713 85.621 M 121 89.500 C 121 90.793, 124.444 91, 146 91 C 167.556 91, 171 90.793, 171 89.500 C 171 88.207, 167.556 88, 146 88 C 124.444 88, 121 88.207, 121 89.500 M 625 92 L 625 95 637.500 95 L 650 95 650 92 L 650 89 637.500 89 L 625 89 625 92 M 360.020 94.927 C 359.415 97.171, 357.651 99.957, 355.904 101.427 C 353.221 103.685, 351.939 104, 345.423 104 L 338 104 338 107 L 338 110 345.532 110 C 349.675 110, 354.512 109.391, 356.282 108.648 C 360.730 106.779, 365.779 101.339, 366.526 97.610 C 366.869 95.899, 367.371 93.713, 367.642 92.750 C 368.044 91.321, 367.488 91, 364.606 91 C 361.346 91, 360.996 91.299, 360.020 94.927 M 121 94.500 C 121 95.805, 125.556 96, 156 96 C 186.444 96, 191 95.805, 191 94.500 C 191 93.195, 186.444 93, 156 93 C 125.556 93, 121 93.195, 121 94.500 M 436.040 96.457 L 433.707 98.941 438.431 104.471 C 442.687 109.453, 443.547 110, 447.120 110 L 451.085 110 445.387 102.750 C 442.253 98.763, 439.393 95.157, 439.031 94.737 C 438.669 94.317, 437.323 95.091, 436.040 96.457 M 110 99.500 C 110 100.805, 114.556 101, 145 101 C 175.444 101, 180 100.805, 180 99.500 C 180 98.195, 175.444 98, 145 98 C 114.556 98, 110 98.195, 110 99.500 M 121 104.500 C 121 105.799, 124.944 106, 150.500 106 C 176.056 106, 180 105.799, 180 104.500 C 180 103.201, 176.056 103, 150.500 103 C 124.944 103, 121 103.201, 121 104.500 M 625 106.972 L 625 110 639.066 110 L 653.133 110 652.816 107.250 L 652.500 104.500 638.750 104.222 L 625 103.944 625 106.972 M 110.686 108.647 C 108.687 110.647, 111.826 111, 131.583 111 C 148.405 111, 153.075 110.724, 152.751 109.750 C 152.440 108.816, 147.154 108.432, 131.854 108.230 C 120.589 108.082, 111.064 108.269, 110.686 108.647" stroke="none" fill="#beecdd" fill-rule="evenodd"/></svg>